<?xml version="1.0" encoding="UTF-8"?><svg id="uuid-5fe42351-d15f-4d21-9d0b-50cb72108b38" xmlns="http://www.w3.org/2000/svg" viewBox="0 0 584.44 81.03">
<path d="M1.04,55.31c-2.74-3.96.36-7.34,4.54-7.27,3.53,0,8.86,4.46,11.59-.07,2.3-3.75-2.45-6.26-5.11-7.56-7.27-3.53-10.87-9.43-9.72-17.71,1.15-8.21,7.13-14.62,14.98-16.85,3.82-1.15,8.86-1.58,12.38.65,2.95,1.87,4.46,6.55.07,7.99-7.78,2.45-17.07,9.58-8.21,17.07,3.31,2.88,7.13,4.54,9.07,8.78,1.66,3.53,1.8,7.99.29,11.67-3.31,7.92-12.53,8.57-19.95,7.42-3.24-.58-7.92-1.22-9.94-4.1Z"/>
<path d="M46.61,57.75c-1.15-6.91-1.73-14.04-2.02-21.03-.29-4.68.94-11.09-.94-12.38l-3.1-.5c-1.44-.22-3.02-.43-4.32-1.01-2.45-1.15-3.67-3.53-1.66-5.9,1.51-1.8,4.46-2.09,6.7-2.3l4.1-1.3c.65-1.01.5-3.31.72-4.54.5-2.59,1.08-5.9,3.31-7.78,4.75-4.68,6.05,8.21,7.13,10.87.72,1.73.14,1.51,2.45,1.66,4.32.29,4.61.29,6.91,1.15,1.94.72,4.46,2.02,5.04,4.18.94,3.38-3.89,4.68-6.26,5.18l-5.9.72c-1.73.5-.86-.43-1.51.94v2.52c0,8.5-.29,17.14-1.22,25.63-.43,3.17-.65,8.93-3.38,11.09-4.25,3.38-5.54-4.32-6.05-7.2Z"/>
<path d="M71.88,31.62c3.17-3.38,8.5-5.33,13.1-3.96,4.82,1.44,8.71,7.56,4.82,11.95-1.8,2.02-4.75,2.81-7.34,3.31s-5.9-.29-6.12,3.46c-.36,6.48,7.42-1.44,8.93-2.09,6.05-2.59,4.82,6.26,2.3,8.79-3.02,3.02-7.78,4.25-11.88,3.53-11.38-2.02-10.15-18.29-3.82-24.99ZM84.7,36.15c-1.8-.29-3.46.5-4.25,2.23,1.44.5,4.9-.72,4.25-2.23Z"/>
<path d="M94.56,69.85c-.43-3.96-.79-7.92-.86-11.95-.29-7.42-.14-15.19,1.08-22.61.43-2.38,1.22-7.06,3.74-8.14,2.38-1.08,4.82,1.15,5.47,3.24,9.15-3.24,20.67,1.8,17.14,12.96-2.09,6.41-7.78,11.23-13.97,13.54-2.3.86-2.16.14-2.66,2.52-.43,2.02-.07,4.39-.14,6.41-.07,3.38-.14,6.84-.86,10.15-.94,4.46-5.18,7.71-7.56,2.02-1.08-2.45-1.01-5.54-1.37-8.14ZM110.33,37.52c-.65-1.73-3.24-.72-4.32.29-1.73,1.66-1.15,5.33-1.22,7.85v.65c1.22-1.22,6.48-6.41,5.54-8.79Z"/>
<path d="M143.67,66.25c-2.02-3.96-.29-9.72-3.67-13.11-4.25,3.75-13.03,11.74-15.27,1.51-1.87-8.28-.07-18.65,1.44-26.93.65-3.82,1.22-8.86,3.38-12.17,2.38-3.67,7.34-2.52,8.21,1.51.94,4.9-1.15,10.66-1.44,15.62-.29,4.97-.43,10.01-1.15,14.91,3.02-3.02,8.42-7.63,11.88-2.45,2.45,3.82,2.16,10.73,2.3,15.05,0,2.02.94,6.7-.94,8.28-2.02,1.66-3.82-.43-4.75-2.23Z"/>
<path d="M170.45,50.63c-4.1,5.62-13.47,8.5-17.21,1.01-2.81-5.69-1.37-13.46,1.87-18.58,3.96-6.19,12.46-10.51,17.57-3.17,2.23,3.24,3.38,4.68,3.53,8.86l.43,13.54c.07,2.16.86,8.28-3.02,7.49-3.24-.72-3.1-6.84-3.17-9.14ZM168.94,38.53c.94-2.09.22-4.25-2.09-3.31-1.51.58-3.17,3.24-3.74,4.75-.5,1.51-.79,3.46,1.37,3.53,1.73.07,3.96-3.67,4.46-4.97Z"/>
<path d="M201.27,49.76c-.58-3.02-1.15-6.84-5.11-6.48-2.23.22-4.03,1.8-5.54,3.31-2.09,1.94-1.8,2.88-1.8,5.54-.14,3.82-2.3,10.8-6.98,5.98-3.38-3.46-2.95-10.37-2.66-14.76.29-4.68,1.08-10.95,4.39-14.55,4.97-5.47,6.12,4.61,6.19,7.99,5.69-5.54,14.19-7.42,18.07.86,3.17,6.77,3.74,15.84,3.74,23.11,0,3.6-2.09,8.5-5.76,4.03-3.17-3.74-3.67-10.44-4.54-15.05Z"/>
<path d="M213.79,49.33c-.14-3.24.07-6.62.29-9.87.14-2.59-.29-6.55,1.73-8.42,5.62-5.4,6.34,6.12,6.62,9.07.43,3.96.07,7.78-.5,11.74-.36,2.02-.29,5.83-2.23,7.2-5.54,3.82-5.76-7.27-5.9-9.72ZM220.06,21.18c3.17,4.61-2.88,9.43-5.62,4.46-2.23-4.18,2.45-9.14,5.62-4.46Z"/>
<path d="M229.56,31.62c3.17-3.38,8.5-5.33,13.1-3.96,4.82,1.44,8.71,7.56,4.82,11.95-1.8,2.02-4.75,2.81-7.34,3.31s-5.9-.29-6.12,3.46c-.36,6.48,7.42-1.44,8.93-2.09,6.05-2.59,4.82,6.26,2.3,8.79-3.02,3.02-7.78,4.25-11.88,3.53-11.38-2.02-10.15-18.29-3.82-24.99ZM242.38,36.15c-1.8-.29-3.46.5-4.25,2.23,1.44.5,4.9-.72,4.25-2.23Z"/>
<path d="M271.32,42.85c1.73-7.13,3.89-14.18,6.19-21.17,1.94-5.9,5.26-9.94,11.95-10.15,7.56-.14,8.93,8.71,10.94,14.47l8.42,23.69c1.15,3.17,1.44,5.54-1.37,7.85-2.81,2.23-5.47,2.09-7.49-.86-1.44-2.09-1.8-6.7-3.74-8.35-.36-.29-10.44-1.08-11.59-.22-2.09,1.73-1.51,7.42-3.38,9.72-1.73,2.16-4.97,2.38-7.56,1.58-7.42-2.16-3.67-11.23-2.38-16.56ZM291.84,37.16c-.65-1.94-1.3-3.82-1.87-5.76-.65,2.16-1.37,4.32-2.02,6.48,1.3-.22,2.59-.5,3.89-.72Z"/>
<path d="M319.41,52.86c3.74,3.53-4.9,10.44-7.2,4.9-1.8-4.25,4.32-9.22,7.2-4.9Z"/>
<path d="M350.16,53.29c-3.38-7.06-7.06-14.4-9.14-21.96-1.22-4.25-.58-16.13,6.55-10.22,2.3,1.94,3.46,5.4,4.61,8.06,2.09,4.97,3.96,10.01,5.76,15.05,1.15-2.74,1.8-3.6,1.08-6.34-.29-1.22-.94-2.52-1.37-3.67-.86-2.38-1.73-4.82-1.87-7.27-.58-8.28,6.7-8.71,10.22-1.87,2.74-4.9,9.94-7.42,11.59-.22,1.58,6.98-6.19,13.11-3.96,19.37,2.02-4.9,8.28-29.02,17.14-23.33,8.35,5.4-3.31,22.25-6.7,27.58-2.16,3.31-5.18,9.79-9.36,11.02-4.75,1.51-7.56-3.02-9.14-6.84-2.09,3.02-4.39,7.49-8.64,7.2-3.6-.22-5.4-3.67-6.77-6.55Z"/>
<path d="M395.95,49.33c-.14-3.24.07-6.62.29-9.87.14-2.59-.29-6.55,1.73-8.42,5.62-5.4,6.34,6.12,6.62,9.07.43,3.96.07,7.78-.5,11.74-.36,2.02-.29,5.83-2.23,7.2-5.54,3.82-5.76-7.27-5.9-9.72ZM402.21,21.18c3.17,4.61-2.88,9.43-5.62,4.46-2.23-4.18,2.45-9.14,5.62-4.46Z"/>
<path d="M407.54,34.57c.36-4.61.43-24.7,10.3-21.17,4.82,1.94.79,14.83.07,18.43-2.16,10.73-.36,23.4,0,32.91.14,3.1-3.02,9.36-6.7,5.18-4.82-5.33-4.46-25.27-3.67-35.36Z"/>
<path d="M424.24,56.03c-1.15-9.94-.22-20.09,1.08-30.03.65-4.61.79-10.3,2.66-14.55,1.44-3.46,7.13-4.18,8.14-.14,1.15,4.39-.14,9.43-.29,13.9-.14,5.47-.72,10.94-1.15,16.42,2.16-1.94,7.99-6.91,11.09-3.74,3.53,3.6-3.1,8.21-5.69,9.65,1.44,1.66,10.58,10.37,4.82,12.31-3.82,1.3-9-7.06-10.22-9.79-.5.22-1.08,5.69-1.3,6.41-.5,1.8-1.22,3.89-2.81,4.97-5.76,2.59-5.98-2.81-6.34-5.4Z"/>
<path d="M449.01,49.33c-.14-3.24.07-6.62.29-9.87.14-2.59-.29-6.55,1.73-8.42,5.62-5.4,6.34,6.12,6.62,9.07.43,3.96.07,7.78-.5,11.74-.36,2.02-.29,5.83-2.23,7.2-5.54,3.82-5.76-7.27-5.9-9.72ZM455.28,21.18c3.17,4.61-2.88,9.43-5.62,4.46-2.23-4.18,2.45-9.14,5.62-4.46Z"/>
<path d="M482.35,49.76c-.58-3.02-1.15-6.84-5.11-6.48-2.23.22-4.03,1.8-5.54,3.31-2.09,1.94-1.8,2.88-1.8,5.54-.14,3.82-2.3,10.8-6.99,5.98-3.38-3.46-2.95-10.37-2.66-14.76.29-4.68,1.08-10.95,4.39-14.55,4.97-5.47,6.12,4.61,6.19,7.99,5.69-5.54,14.19-7.42,18.07.86,3.17,6.77,3.75,15.84,3.75,23.11,0,3.6-2.09,8.5-5.76,4.03-3.17-3.74-3.67-10.44-4.54-15.05Z"/>
<path d="M495.59,62.8c-2.3-2.09-2.38-4.46-.58-6.77,2.88-3.6,9.14-4.03,10.87-8.57,1.22-3.17-1.22-4.46-3.1-6.41-2.16-2.3-3.17-5.26-2.38-8.42,1.15-5.04,5.62-7.63,10.23-9.07,3.31-1.01,9.43-2.16,11.02,2.16,2.74,7.2-11.09,6.7-11.52,12.46-.22,2.95,3.6,4.46,4.9,6.62,1.37,2.3,1.37,4.97.58,7.42-1.66,5.26-6.34,9.22-11.38,11.09-2.74,1.01-6.34,1.66-8.64-.5Z"/>
<path d="M525.18,50.7c-2.23-7.49-1.01-17.21,5.26-22.47,5.47-4.54,17.07-4.1,17.5,4.82,3.1,7.63,2.38,18.79-4.54,24.19-7.2,5.54-15.7,1.58-18.22-6.55ZM542.39,38.67c-.86.72-1.73,1.73-2.16,2.66-1.87,3.74-2.3,6.84.43,6.19,2.16-.5,1.87-7.63,1.73-8.86Z"/>
<path d="M574.15,49.76c-.58-3.02-1.15-6.84-5.11-6.48-2.23.22-4.03,1.8-5.54,3.31-2.09,1.94-1.8,2.88-1.8,5.54-.14,3.82-2.3,10.8-6.99,5.98-3.38-3.46-2.95-10.37-2.66-14.76.29-4.68,1.08-10.95,4.39-14.55,4.97-5.47,6.12,4.61,6.19,7.99,5.69-5.54,14.19-7.42,18.07.86,3.17,6.77,3.74,15.84,3.74,23.11,0,3.6-2.09,8.5-5.76,4.03-3.17-3.74-3.67-10.44-4.54-15.05Z"/></svg>
