<?xml version="1.0" encoding="UTF-8"?>
<svg xmlns="http://www.w3.org/2000/svg" version="1.1" viewBox="0 0 584.4 81">
  <defs>
    <style>
      .cls-1 {
        fill: #fff;
      }
    </style>
  </defs>
  <!-- Generator: Adobe Illustrator 28.7.1, SVG Export Plug-In . SVG Version: 1.2.0 Build 142)  -->
  <g>
    <g id="uuid-5fe42351-d15f-4d21-9d0b-50cb72108b38">
      <path class="cls-1" d="M1,55.3c-2.7-4,.4-7.3,4.5-7.3,3.5,0,8.9,4.5,11.6,0,2.3-3.8-2.4-6.3-5.1-7.6-7.3-3.5-10.9-9.4-9.7-17.7,1.2-8.2,7.1-14.6,15-16.9,3.8-1.2,8.9-1.6,12.4.7,3,1.9,4.5,6.6,0,8-7.8,2.5-17.1,9.6-8.2,17.1,3.3,2.9,7.1,4.5,9.1,8.8,1.7,3.5,1.8,8,.3,11.7-3.3,7.9-12.5,8.6-20,7.4-3.2-.6-7.9-1.2-9.9-4.1h0Z"/>
      <path class="cls-1" d="M46.6,57.8c-1.2-6.9-1.7-14-2-21-.3-4.7.9-11.1-.9-12.4l-3.1-.5c-1.4-.2-3-.4-4.3-1-2.5-1.1-3.7-3.5-1.7-5.9,1.5-1.8,4.5-2.1,6.7-2.3l4.1-1.3c.7-1,.5-3.3.7-4.5.5-2.6,1.1-5.9,3.3-7.8,4.8-4.7,6,8.2,7.1,10.9.7,1.7.1,1.5,2.5,1.7,4.3.3,4.6.3,6.9,1.1,1.9.7,4.5,2,5,4.2.9,3.4-3.9,4.7-6.3,5.2l-5.9.7c-1.7.5-.9-.4-1.5.9v2.5c0,8.5-.3,17.1-1.2,25.6-.4,3.2-.7,8.9-3.4,11.1-4.2,3.4-5.5-4.3-6.1-7.2Z"/>
      <path class="cls-1" d="M71.9,31.6c3.2-3.4,8.5-5.3,13.1-4,4.8,1.4,8.7,7.6,4.8,12-1.8,2-4.8,2.8-7.3,3.3s-5.9-.3-6.1,3.5c-.4,6.5,7.4-1.4,8.9-2.1,6.1-2.6,4.8,6.3,2.3,8.8-3,3-7.8,4.2-11.9,3.5-11.4-2-10.2-18.3-3.8-25h0ZM84.7,36.2c-1.8-.3-3.5.5-4.2,2.2,1.4.5,4.9-.7,4.2-2.2Z"/>
      <path class="cls-1" d="M94.6,69.8c-.4-4-.8-7.9-.9-12-.3-7.4-.1-15.2,1.1-22.6.4-2.4,1.2-7.1,3.7-8.1,2.4-1.1,4.8,1.1,5.5,3.2,9.2-3.2,20.7,1.8,17.1,13-2.1,6.4-7.8,11.2-14,13.5-2.3.9-2.2.1-2.7,2.5-.4,2,0,4.4-.1,6.4,0,3.4-.1,6.8-.9,10.2-.9,4.5-5.2,7.7-7.6,2-1.1-2.4-1-5.5-1.4-8.1h0ZM110.3,37.5c-.7-1.7-3.2-.7-4.3.3-1.7,1.7-1.2,5.3-1.2,7.8v.7c1.2-1.2,6.5-6.4,5.5-8.8Z"/>
      <path class="cls-1" d="M143.7,66.2c-2-4-.3-9.7-3.7-13.1-4.2,3.8-13,11.7-15.3,1.5-1.9-8.3,0-18.6,1.4-26.9.7-3.8,1.2-8.9,3.4-12.2,2.4-3.7,7.3-2.5,8.2,1.5.9,4.9-1.1,10.7-1.4,15.6-.3,5-.4,10-1.1,14.9,3-3,8.4-7.6,11.9-2.5,2.4,3.8,2.2,10.7,2.3,15,0,2,.9,6.7-.9,8.3-2,1.7-3.8-.4-4.8-2.2h0Z"/>
      <path class="cls-1" d="M170.4,50.6c-4.1,5.6-13.5,8.5-17.2,1-2.8-5.7-1.4-13.5,1.9-18.6,4-6.2,12.5-10.5,17.6-3.2,2.2,3.2,3.4,4.7,3.5,8.9l.4,13.5c0,2.2.9,8.3-3,7.5-3.2-.7-3.1-6.8-3.2-9.1h0ZM168.9,38.5c.9-2.1.2-4.2-2.1-3.3-1.5.6-3.2,3.2-3.7,4.8-.5,1.5-.8,3.5,1.4,3.5,1.7,0,4-3.7,4.5-5Z"/>
      <path class="cls-1" d="M201.3,49.8c-.6-3-1.1-6.8-5.1-6.5-2.2.2-4,1.8-5.5,3.3-2.1,1.9-1.8,2.9-1.8,5.5-.1,3.8-2.3,10.8-7,6-3.4-3.5-2.9-10.4-2.7-14.8.3-4.7,1.1-11,4.4-14.5,5-5.5,6.1,4.6,6.2,8,5.7-5.5,14.2-7.4,18.1.9,3.2,6.8,3.7,15.8,3.7,23.1s-2.1,8.5-5.8,4c-3.2-3.7-3.7-10.4-4.5-15h0Z"/>
      <path class="cls-1" d="M213.8,49.3c-.1-3.2,0-6.6.3-9.9.1-2.6-.3-6.5,1.7-8.4,5.6-5.4,6.3,6.1,6.6,9.1.4,4,0,7.8-.5,11.7-.4,2-.3,5.8-2.2,7.2-5.5,3.8-5.8-7.3-5.9-9.7h0ZM220.1,21.2c3.2,4.6-2.9,9.4-5.6,4.5-2.2-4.2,2.4-9.1,5.6-4.5Z"/>
      <path class="cls-1" d="M229.6,31.6c3.2-3.4,8.5-5.3,13.1-4,4.8,1.4,8.7,7.6,4.8,12-1.8,2-4.8,2.8-7.3,3.3s-5.9-.3-6.1,3.5c-.4,6.5,7.4-1.4,8.9-2.1,6.1-2.6,4.8,6.3,2.3,8.8-3,3-7.8,4.2-11.9,3.5-11.4-2-10.1-18.3-3.8-25h0ZM242.4,36.2c-1.8-.3-3.5.5-4.2,2.2,1.4.5,4.9-.7,4.2-2.2Z"/>
      <path class="cls-1" d="M271.3,42.8c1.7-7.1,3.9-14.2,6.2-21.2,1.9-5.9,5.3-9.9,12-10.1,7.6-.1,8.9,8.7,10.9,14.5l8.4,23.7c1.1,3.2,1.4,5.5-1.4,7.8-2.8,2.2-5.5,2.1-7.5-.9-1.4-2.1-1.8-6.7-3.7-8.3-.4-.3-10.4-1.1-11.6-.2-2.1,1.7-1.5,7.4-3.4,9.7-1.7,2.2-5,2.4-7.6,1.6-7.4-2.2-3.7-11.2-2.4-16.6h0ZM291.8,37.2c-.6-1.9-1.3-3.8-1.9-5.8-.6,2.2-1.4,4.3-2,6.5,1.3-.2,2.6-.5,3.9-.7h0Z"/>
      <path class="cls-1" d="M319.4,52.9c3.7,3.5-4.9,10.4-7.2,4.9-1.8-4.2,4.3-9.2,7.2-4.9Z"/>
      <path class="cls-1" d="M350.2,53.3c-3.4-7.1-7.1-14.4-9.1-22-1.2-4.2-.6-16.1,6.5-10.2,2.3,1.9,3.5,5.4,4.6,8.1,2.1,5,4,10,5.8,15,1.1-2.7,1.8-3.6,1.1-6.3-.3-1.2-.9-2.5-1.4-3.7-.9-2.4-1.7-4.8-1.9-7.3-.6-8.3,6.7-8.7,10.2-1.9,2.7-4.9,9.9-7.4,11.6-.2,1.6,7-6.2,13.1-4,19.4,2-4.9,8.3-29,17.1-23.3,8.4,5.4-3.3,22.2-6.7,27.6-2.2,3.3-5.2,9.8-9.4,11-4.8,1.5-7.6-3-9.1-6.8-2.1,3-4.4,7.5-8.6,7.2-3.6-.2-5.4-3.7-6.8-6.5h0Z"/>
      <path class="cls-1" d="M396,49.3c-.1-3.2,0-6.6.3-9.9.1-2.6-.3-6.5,1.7-8.4,5.6-5.4,6.3,6.1,6.6,9.1.4,4,0,7.8-.5,11.7-.4,2-.3,5.8-2.2,7.2-5.5,3.8-5.8-7.3-5.9-9.7h0ZM402.2,21.2c3.2,4.6-2.9,9.4-5.6,4.5-2.2-4.2,2.5-9.1,5.6-4.5Z"/>
      <path class="cls-1" d="M407.5,34.6c.4-4.6.4-24.7,10.3-21.2,4.8,1.9.8,14.8,0,18.4-2.2,10.7-.4,23.4,0,32.9.1,3.1-3,9.4-6.7,5.2-4.8-5.3-4.5-25.3-3.7-35.4h0Z"/>
      <path class="cls-1" d="M424.2,56c-1.1-9.9-.2-20.1,1.1-30,.6-4.6.8-10.3,2.7-14.6,1.4-3.5,7.1-4.2,8.1-.1,1.1,4.4-.1,9.4-.3,13.9-.1,5.5-.7,10.9-1.1,16.4,2.2-1.9,8-6.9,11.1-3.7,3.5,3.6-3.1,8.2-5.7,9.6,1.4,1.7,10.6,10.4,4.8,12.3-3.8,1.3-9-7.1-10.2-9.8-.5.2-1.1,5.7-1.3,6.4-.5,1.8-1.2,3.9-2.8,5-5.8,2.6-6-2.8-6.3-5.4h0Z"/>
      <path class="cls-1" d="M449,49.3c-.1-3.2,0-6.6.3-9.9.1-2.6-.3-6.5,1.7-8.4,5.6-5.4,6.3,6.1,6.6,9.1.4,4,0,7.8-.5,11.7-.4,2-.3,5.8-2.2,7.2-5.5,3.8-5.8-7.3-5.9-9.7h0ZM455.3,21.2c3.2,4.6-2.9,9.4-5.6,4.5-2.2-4.2,2.5-9.1,5.6-4.5Z"/>
      <path class="cls-1" d="M482.4,49.8c-.6-3-1.1-6.8-5.1-6.5-2.2.2-4,1.8-5.5,3.3-2.1,1.9-1.8,2.9-1.8,5.5-.1,3.8-2.3,10.8-7,6-3.4-3.5-3-10.4-2.7-14.8.3-4.7,1.1-11,4.4-14.5,5-5.5,6.1,4.6,6.2,8,5.7-5.5,14.2-7.4,18.1.9,3.2,6.8,3.8,15.8,3.8,23.1s-2.1,8.5-5.8,4c-3.2-3.7-3.7-10.4-4.5-15h0Z"/>
      <path class="cls-1" d="M495.6,62.8c-2.3-2.1-2.4-4.5-.6-6.8,2.9-3.6,9.1-4,10.9-8.6,1.2-3.2-1.2-4.5-3.1-6.4-2.2-2.3-3.2-5.3-2.4-8.4,1.1-5,5.6-7.6,10.2-9.1,3.3-1,9.4-2.2,11,2.2,2.7,7.2-11.1,6.7-11.5,12.5-.2,3,3.6,4.5,4.9,6.6,1.4,2.3,1.4,5,.6,7.4-1.7,5.3-6.3,9.2-11.4,11.1-2.7,1-6.3,1.7-8.6-.5h0Z"/>
      <path class="cls-1" d="M525.2,50.7c-2.2-7.5-1-17.2,5.3-22.5,5.5-4.5,17.1-4.1,17.5,4.8,3.1,7.6,2.4,18.8-4.5,24.2-7.2,5.5-15.7,1.6-18.2-6.5h0ZM542.4,38.7c-.9.7-1.7,1.7-2.2,2.7-1.9,3.7-2.3,6.8.4,6.2,2.2-.5,1.9-7.6,1.7-8.9h0Z"/>
      <path class="cls-1" d="M574.2,49.8c-.6-3-1.2-6.8-5.1-6.5-2.2.2-4,1.8-5.5,3.3-2.1,1.9-1.8,2.9-1.8,5.5-.1,3.8-2.3,10.8-7,6-3.4-3.5-3-10.4-2.7-14.8.3-4.7,1.1-11,4.4-14.5,5-5.5,6.1,4.6,6.2,8,5.7-5.5,14.2-7.4,18.1.9,3.2,6.8,3.7,15.8,3.7,23.1s-2.1,8.5-5.8,4c-3.2-3.7-3.7-10.4-4.5-15h0Z"/>
    </g>
  </g>
</svg>